<?xml version="1.0" standalone="no"?>
<!DOCTYPE svg PUBLIC "-//W3C//DTD SVG 20010904//EN"
 "http://www.w3.org/TR/2001/REC-SVG-20010904/DTD/svg10.dtd">
<svg version="1.0" xmlns="http://www.w3.org/2000/svg"
 width="1080.000000pt" height="1080.000000pt" viewBox="0 0 1080.000000 1080.000000"
 preserveAspectRatio="xMidYMid meet">
<metadata>
Created by potrace 1.14, written by Peter Selinger 2001-2017
</metadata>
<g transform="translate(0.000000,1080.000000) scale(0.100000,-0.100000)"
fill="#000000" stroke="none">
<path d="M34 10778 c47 -161 42 -302 -14 -432 -17 -41 -20 -69 -20 -197 0 -83
4 -149 9 -149 14 0 106 113 143 176 18 30 35 54 39 54 3 0 26 -19 51 -43 51
-50 117 -73 176 -63 57 9 300 111 329 138 71 66 84 176 33 271 -43 82 -39 107
11 69 61 -46 264 -165 297 -174 20 -6 57 -8 82 -5 69 9 287 100 324 136 27 26
40 31 80 31 37 0 107 23 309 103 l262 102 -260 3 c-162 1 -271 -2 -290 -8 -20
-7 -31 -7 -33 0 -2 6 -48 10 -117 10 l-114 0 19 -44 c14 -34 16 -47 7 -54 -15
-13 -195 -82 -212 -82 -11 0 -126 68 -254 151 l-44 29 -189 0 c-103 0 -188 -3
-188 -7 0 -5 32 -88 70 -186 39 -98 70 -184 70 -191 0 -11 -197 -96 -221 -96
-3 0 -48 108 -100 240 l-94 240 -84 0 c-82 0 -83 0 -77 -22z"/>
<path d="M3097 10770 c-38 -16 -87 -46 -111 -68 -39 -36 -47 -39 -117 -45
-254 -19 -491 -151 -599 -332 -13 -22 -25 -42 -26 -44 -2 -2 -35 5 -75 14
-143 35 -359 2 -528 -82 -188 -93 -335 -243 -421 -431 l-15 -33 -35 24 c-72
49 -146 69 -261 68 -119 0 -192 -14 -337 -65 -141 -49 -345 -132 -383 -155
-19 -12 -44 -21 -56 -21 -13 0 -47 -10 -78 -22 l-55 -23 0 -103 c0 -118 -10
-112 104 -66 33 13 61 24 63 24 11 0 -7 -65 -82 -302 -74 -229 -86 -276 -83
-325 l3 -57 310 -187 c170 -102 311 -191 312 -196 3 -7 -207 -96 -272 -115 -6
-2 -88 45 -183 104 l-172 107 0 -280 c0 -153 3 -279 6 -279 4 0 22 9 40 21 45
27 83 95 91 158 3 28 9 51 13 51 4 0 33 -16 65 -35 62 -37 124 -51 177 -40 37
9 272 96 333 125 22 10 119 49 215 85 280 107 413 180 508 277 70 72 84 92
126 176 30 59 41 72 54 67 214 -89 384 -96 597 -28 150 48 289 130 401 236
l69 65 110 0 c206 -1 404 61 555 172 85 63 132 121 181 225 35 72 42 97 46
167 10 164 -40 308 -145 420 -36 38 -85 81 -109 95 -47 27 -49 31 -30 56 15
20 138 70 148 60 4 -5 64 -154 134 -333 70 -179 136 -342 146 -362 36 -70 124
-115 208 -105 59 8 287 100 319 130 42 39 66 97 65 157 0 45 -15 94 -82 262
-45 114 -84 222 -88 240 l-6 33 34 -42 c19 -22 57 -69 84 -103 74 -92 144
-146 250 -196 118 -55 185 -73 297 -81 150 -10 285 20 447 99 111 55 259 193
311 292 19 36 40 66 46 66 5 0 26 -16 45 -36 43 -46 102 -73 156 -74 42 0 205
55 290 99 56 28 89 74 109 152 17 64 17 64 -9 138 -14 41 -24 78 -21 82 5 9
41 -10 170 -90 114 -70 146 -83 214 -82 71 0 274 78 328 125 27 24 47 32 96
37 41 4 122 31 251 82 l190 76 -331 0 -331 1 4 -24 c4 -21 -4 -27 -99 -65 -56
-22 -107 -41 -113 -41 -5 0 -57 29 -114 65 l-103 65 -219 0 c-121 0 -219 -3
-219 -8 0 -4 27 -77 60 -161 34 -85 59 -160 56 -166 -6 -18 -218 -98 -226 -86
-3 6 -41 102 -85 215 l-80 206 -86 0 -85 0 12 -72 c32 -189 -28 -379 -164
-514 -71 -71 -133 -109 -237 -147 -87 -32 -127 -38 -223 -38 -92 1 -205 30
-282 73 -30 18 -87 64 -127 104 -76 77 -126 164 -159 279 -19 66 -22 203 -6
273 l10 42 -83 0 -83 0 11 -35 c6 -19 8 -37 6 -39 -2 -2 -76 -31 -164 -65 -88
-35 -163 -66 -167 -69 -4 -4 69 -201 162 -437 130 -330 166 -433 157 -441 -13
-12 -180 -80 -210 -86 -16 -2 -44 62 -187 425 -93 236 -171 431 -174 434 -3 4
-77 -21 -163 -55 -87 -34 -164 -63 -172 -64 -10 -2 -27 27 -53 87 -20 50 -37
98 -38 107 0 10 13 21 33 27 17 6 145 56 282 111 l250 99 -265 0 -265 0 -68
-29z m993 -327 c-1 -36 -2 -37 -15 -19 -19 26 -19 56 0 56 11 0 15 -11 15 -37z
m-1052 13 c12 -20 82 -201 82 -214 0 -10 -20 -12 -87 -8 -154 8 -321 -35 -363
-94 -29 -41 -26 -83 9 -122 l29 -33 219 0 c215 0 219 0 275 -27 116 -54 188
-171 188 -308 0 -77 -17 -131 -63 -198 -82 -122 -320 -222 -519 -218 l-72 1
-42 105 c-24 58 -43 110 -44 116 0 7 42 11 128 11 138 0 216 16 280 55 40 24
71 55 73 72 6 51 5 64 -7 88 -26 50 -42 53 -269 53 -195 0 -214 2 -267 23
-114 46 -191 170 -191 307 0 207 191 363 488 399 61 7 146 3 153 -8z m-927
-345 l35 -1 42 -108 c23 -60 42 -113 42 -119 0 -7 -35 -9 -105 -5 -142 7 -224
-11 -335 -73 -44 -24 -110 -102 -138 -163 -22 -47 -27 -71 -27 -143 0 -78 3
-91 38 -161 80 -162 226 -236 401 -203 63 11 134 42 175 76 l24 19 -29 75
c-16 41 -34 75 -41 75 -7 0 -47 -14 -89 -30 -42 -17 -81 -29 -86 -28 -11 4
-78 163 -78 184 0 15 402 175 413 165 7 -7 175 -427 191 -478 6 -18 -2 -31
-38 -67 -74 -72 -203 -151 -311 -191 -234 -88 -480 -44 -644 114 -143 139
-214 363 -175 556 37 180 164 339 344 428 91 45 152 63 250 74 25 3 46 6 47 7
1 1 15 1 30 0 15 -1 44 -2 64 -3z m-1081 -485 c57 -29 109 -86 130 -143 35
-95 22 -175 -40 -246 l-30 -34 59 -6 c113 -10 188 -62 239 -167 37 -76 38
-191 3 -264 -34 -70 -124 -153 -222 -207 -104 -58 -448 -194 -459 -182 -15 14
-421 1056 -418 1070 5 24 404 174 503 190 17 3 32 7 34 9 12 11 170 -4 201
-20z m-733 -752 c34 -83 39 -104 24 -104 -16 0 -103 53 -108 66 -7 20 28 125
41 121 6 -2 25 -39 43 -83z"/>
<path d="M795 9403 c-33 -7 -170 -54 -177 -62 -6 -5 73 -226 86 -238 4 -4 133
50 172 73 50 29 78 77 71 123 -11 82 -70 122 -152 104z"/>
<path d="M875 8974 c-49 -19 -93 -38 -97 -42 -6 -6 82 -245 95 -258 12 -13
207 82 250 122 51 48 48 120 -7 179 -31 33 -37 35 -92 34 -42 0 -84 -10 -149
-35z"/>
<path d="M4552 10783 c-25 -48 -34 -138 -22 -204 23 -120 98 -222 203 -276 75
-38 189 -43 272 -12 80 30 172 121 200 199 26 73 26 187 0 258 l-19 52 -150 0
-151 0 40 -19 c75 -34 112 -103 102 -189 -4 -38 -13 -53 -46 -84 -36 -34 -46
-38 -94 -38 -68 0 -114 28 -144 90 -45 92 -15 187 72 226 27 12 15 13 -112 14
-126 0 -143 -2 -151 -17z"/>
<path d="M8200 10701 c-212 -84 -252 -104 -295 -143 -49 -44 -52 -45 -130 -51
-244 -18 -470 -137 -591 -313 -37 -53 -40 -55 -74 -50 -269 46 -549 -29 -759
-205 -75 -62 -160 -173 -202 -263 -17 -36 -35 -66 -41 -66 -6 0 -39 14 -74 31
-36 17 -91 36 -123 42 -87 18 -246 5 -351 -28 -114 -36 -439 -164 -470 -185
-14 -9 -41 -20 -60 -24 -68 -13 -323 -119 -356 -148 -36 -32 -84 -120 -84
-155 0 -26 -21 -31 -39 -9 -6 8 -35 24 -63 36 -41 17 -63 21 -103 16 -75 -8
-274 -90 -323 -131 -33 -29 -48 -35 -86 -35 -57 0 -177 -44 -230 -85 -31 -23
-57 -34 -97 -38 -64 -8 -188 -56 -235 -92 -18 -14 -45 -50 -60 -80 l-27 -56
11 -111 12 -112 -54 -48 c-67 -60 -86 -109 -86 -224 l0 -83 -51 -26 c-28 -14
-80 -37 -116 -51 -56 -23 -67 -24 -79 -12 -12 12 -12 21 2 62 22 64 15 109
-36 241 -34 86 -52 119 -85 151 -49 47 -114 70 -176 60 -23 -4 -191 -66 -375
-138 -238 -93 -345 -140 -371 -163 -30 -25 -50 -33 -98 -38 -72 -7 -283 -88
-326 -124 -36 -31 -66 -87 -75 -140 -4 -29 1 -58 21 -114 15 -41 29 -84 32
-96 6 -24 -6 -30 -23 -13 -12 12 -216 137 -268 164 -22 11 -65 22 -96 24 -48
4 -72 -2 -178 -43 -181 -71 -241 -133 -242 -252 0 -29 -5 -53 -10 -53 -6 0
-43 9 -83 21 -155 44 -331 34 -504 -27 l-73 -26 0 -114 0 -113 75 39 c201 102
450 91 623 -27 161 -110 258 -289 267 -488 6 -150 -48 -300 -149 -412 -71 -78
-142 -124 -256 -169 -89 -34 -102 -37 -210 -37 -100 -1 -125 2 -193 26 -42 15
-95 38 -117 52 l-40 25 0 -113 0 -113 36 -18 c111 -52 333 -72 477 -41 145 30
301 112 410 214 27 25 76 86 109 136 33 49 61 91 63 93 1 1 30 -24 63 -56 l61
-59 -80 -147 c-43 -82 -79 -151 -79 -154 0 -9 -112 -256 -121 -268 -5 -6 -29
-14 -54 -17 -65 -9 -261 -91 -312 -131 -36 -28 -53 -34 -91 -34 -56 -1 -201
-58 -241 -96 -18 -16 -43 -25 -82 -30 -31 -3 -79 -15 -107 -27 l-52 -22 0
-283 0 -283 30 11 c17 5 32 14 35 19 3 4 -2 81 -10 170 -14 134 -14 164 -3
174 16 14 129 57 135 51 3 -2 12 -76 20 -163 9 -87 18 -161 22 -165 7 -7 135
42 150 57 6 6 6 39 1 85 -5 41 -12 116 -15 167 l-7 92 33 14 c68 28 109 41
114 35 3 -3 13 -77 21 -164 8 -87 17 -160 19 -163 3 -2 37 8 76 24 85 33 90
29 87 -64 -3 -71 0 -67 -92 -106 l-58 -25 7 -92 c4 -51 9 -96 12 -100 2 -4 26
1 53 12 l50 20 0 -34 c0 -18 -3 -55 -7 -81 -5 -39 -12 -51 -37 -66 -17 -10
-34 -20 -39 -22 -4 -1 -1 -63 8 -137 24 -218 28 -203 -56 -234 -38 -14 -72
-26 -74 -26 -3 0 -9 46 -20 155 -2 22 -7 70 -11 108 -3 38 -11 67 -17 67 -7 0
-42 -12 -79 -27 l-68 -26 1 -51 c0 -28 6 -104 13 -170 12 -115 12 -118 -8
-131 -28 -17 -124 -50 -130 -44 -2 2 -11 76 -20 163 -9 88 -17 161 -19 163 -2
2 -29 -6 -61 -18 l-56 -22 0 -197 0 -198 39 -35 c52 -47 119 -62 194 -42 71
18 166 61 193 86 12 12 41 23 66 26 23 2 69 14 101 25 32 11 60 18 63 15 3 -3
10 -52 15 -109 5 -56 14 -133 19 -170 5 -36 7 -73 4 -81 -3 -9 -94 -50 -202
-93 -108 -42 -262 -103 -342 -134 l-145 -58 -3 -246 c-1 -167 1 -253 9 -267 8
-15 8 -24 0 -32 -7 -7 -11 -57 -11 -128 l0 -117 38 -7 c98 -18 193 -104 228
-207 28 -80 25 -189 -7 -258 -39 -84 -132 -171 -217 -205 l-42 -17 0 -104 c0
-57 2 -104 4 -104 2 0 38 14 81 31 143 58 253 149 327 270 77 127 90 324 30
467 -43 102 -98 178 -162 223 -84 58 -91 65 -81 91 8 23 114 73 137 64 6 -2
60 -127 119 -278 162 -411 162 -411 203 -450 90 -86 150 -89 334 -17 77 30
144 64 165 82 35 31 36 31 50 12 15 -22 155 -242 185 -291 l19 -32 -50 -36
c-29 -20 -60 -54 -73 -78 -21 -39 -23 -54 -21 -173 l2 -130 -43 -26 c-32 -20
-51 -41 -71 -83 l-28 -57 11 -111 c8 -78 18 -121 32 -146 18 -30 19 -39 9 -70
-17 -52 -5 -220 19 -275 23 -50 62 -88 117 -114 41 -19 44 -25 60 -124 14 -89
113 -170 209 -171 63 -1 195 47 260 94 24 17 53 28 72 28 69 0 231 74 267 122
46 62 55 115 42 254 l-8 80 34 22 c41 26 51 19 76 -51 24 -68 103 -151 158
-166 54 -15 79 -14 140 5 l53 17 173 -94 c95 -52 181 -97 191 -101 14 -6 22 1
39 35 12 23 35 60 50 82 28 39 29 42 17 98 l-12 58 -79 42 c-108 58 -154 99
-188 171 -66 139 -11 293 162 463 67 64 175 143 196 143 5 0 21 25 37 56 l27
57 -29 41 c-92 132 -134 324 -98 450 41 141 220 230 486 243 63 3 139 1 168
-4 28 -6 52 -8 52 -5 0 2 -15 25 -34 51 -71 98 -106 192 -106 289 0 68 16 117
56 169 29 38 30 38 -50 17 -122 -31 -274 -86 -361 -132 -86 -45 -91 -49 -119
-107 -64 -134 -136 -243 -195 -298 -146 -134 -309 -127 -383 18 -25 48 -20
138 12 230 l22 59 -24 19 c-64 52 -266 130 -369 142 -55 7 -58 6 -95 -28 -56
-49 -180 -136 -243 -169 -101 -53 -223 -31 -278 51 -53 78 -54 164 -3 268 29
58 30 66 19 105 -6 24 -20 61 -31 82 -25 49 -120 150 -170 182 l-38 24 -52
-24 c-113 -52 -151 -66 -199 -72 -94 -13 -185 47 -209 137 -13 47 -6 86 25
149 12 25 25 61 29 81 10 56 38 83 141 139 76 41 98 58 118 93 30 50 200 180
416 319 146 93 143 88 120 165 -15 48 -3 103 32 147 55 70 244 158 514 241 66
20 190 59 275 85 168 53 530 143 668 166 144 24 303 44 349 44 40 0 44 3 63
41 12 22 20 52 18 66 -3 24 -6 25 -79 27 -59 2 -84 7 -113 25 -115 72 -120
213 -11 329 19 20 35 43 36 52 2 32 -4 66 -16 91 -25 47 -40 53 -133 50 -118
-3 -175 22 -221 99 -39 65 -21 169 42 240 63 72 228 165 347 196 70 19 253 25
351 12 l57 -8 22 95 21 95 -46 53 c-66 75 -111 173 -135 296 -75 385 -41 733
106 1079 54 126 60 133 68 77 6 -36 11 -45 27 -45 10 0 19 -6 19 -14 0 -8 7
-16 15 -20 8 -3 15 -12 15 -21 0 -29 16 -14 49 47 51 92 128 205 188 276 29
35 53 69 53 76 0 7 -13 46 -30 86 -16 40 -30 80 -30 89 0 10 -4 21 -9 27 -15
14 -199 487 -195 499 6 15 225 98 235 88 4 -4 44 -102 89 -218 45 -115 86
-216 90 -224 10 -18 18 -4 35 57 42 151 159 529 167 539 11 14 269 116 275
109 3 -3 -6 -40 -20 -83 -14 -43 -55 -172 -92 -288 -36 -115 -70 -220 -76
-233 -12 -30 -12 -59 1 -67 5 -3 49 17 97 46 48 28 97 55 110 60 13 5 23 17
23 28 0 24 31 91 42 91 4 0 15 -15 24 -32 9 -18 17 -34 19 -36 1 -1 33 11 70
26 104 42 104 43 0 307 -47 119 -85 220 -85 225 0 8 240 105 365 147 136 47
234 60 320 43 190 -38 269 -250 150 -406 l-24 -31 61 -7 c80 -8 141 -40 189
-98 43 -50 64 -60 178 -82 l74 -13 -36 33 c-125 119 -184 248 -194 429 -4 76
-1 115 12 165 60 232 267 417 519 465 71 13 125 18 202 16 l42 -1 46 -115 c25
-63 46 -117 46 -119 0 -2 -51 -2 -113 1 -177 9 -305 -33 -399 -131 -125 -128
-133 -339 -18 -484 86 -110 212 -154 358 -127 70 14 179 66 189 91 7 19 -46
154 -61 154 -8 0 -46 -13 -86 -30 -40 -16 -78 -30 -85 -30 -11 0 -91 187 -83
195 2 3 96 40 208 84 145 57 207 76 211 68 16 -28 189 -478 189 -491 0 -17
-97 -105 -170 -154 -100 -67 -287 -132 -377 -132 -43 0 -36 -9 27 -35 25 -11
81 -41 125 -67 44 -26 86 -48 93 -48 22 0 151 59 208 96 64 41 153 111 210
166 41 39 42 40 96 33 61 -8 239 15 329 41 207 61 358 173 432 321 54 108 69
166 69 262 0 72 -5 100 -31 171 -53 140 -110 214 -215 275 -25 15 -46 29 -46
30 0 25 31 57 71 74 81 35 82 34 130 -86 176 -452 231 -587 251 -613 31 -42
111 -80 167 -80 56 1 295 92 345 132 81 65 98 173 42 279 -39 76 -246 597
-246 622 0 22 19 22 26 0 118 -387 370 -604 730 -630 148 -11 316 28 452 103
133 73 222 157 307 291 22 35 44 63 48 63 4 0 22 -16 40 -37 40 -46 99 -72
159 -73 79 0 78 -1 78 116 0 57 -2 104 -5 104 -3 0 -22 -7 -41 -15 -20 -8 -40
-13 -44 -10 -4 3 -19 33 -33 67 -13 35 -64 163 -112 286 l-87 222 -88 0 -88 0
34 -79 c44 -101 58 -176 51 -281 -16 -230 -153 -418 -371 -509 -92 -38 -158
-52 -252 -52 -317 -1 -573 247 -591 571 -6 112 11 199 57 290 l30 60 -407 -1
-408 -1 -245 -97z m814 -25 c20 -49 34 -92 31 -96 -2 -4 -79 -36 -170 -71 -90
-35 -165 -69 -165 -76 0 -6 74 -201 165 -432 91 -231 165 -425 165 -430 0 -5
-51 -29 -112 -54 -85 -34 -116 -43 -124 -34 -6 7 -84 200 -174 431 -90 230
-169 420 -175 422 -5 2 -84 -25 -175 -61 -90 -36 -167 -62 -171 -57 -15 17
-78 197 -71 204 4 4 212 88 462 187 345 136 458 176 467 168 6 -7 27 -52 47
-101z m-1075 -370 c9 -10 91 -211 91 -221 0 -3 -42 -3 -92 -1 -140 7 -286 -26
-350 -77 -42 -34 -41 -113 3 -153 20 -18 36 -19 211 -16 206 4 265 -4 335 -44
134 -77 200 -295 129 -432 -53 -104 -134 -172 -266 -224 -92 -36 -201 -56
-293 -54 l-69 1 -39 100 c-21 55 -41 107 -44 116 -5 13 11 15 117 15 235 0
368 61 368 169 0 29 -8 45 -35 72 l-35 35 -188 -6 c-206 -8 -265 1 -341 48
-85 54 -141 167 -141 286 0 222 254 398 573 397 31 0 61 -5 66 -11z m-3939
-1483 c1 -35 31 -317 35 -321 2 -3 37 7 76 22 39 15 74 24 78 21 3 -4 7 -39 9
-79 l4 -72 -73 -22 c-41 -12 -135 -35 -209 -52 -136 -31 -161 -38 -371 -106
-126 -41 -152 -40 -147 3 3 24 13 32 75 58 39 16 74 33 77 36 3 3 -1 79 -10
168 -9 95 -12 167 -7 172 16 16 128 57 136 50 4 -4 15 -75 23 -157 9 -82 17
-154 19 -161 5 -14 131 28 151 50 9 9 8 46 -2 142 -8 72 -13 147 -12 169 3 36
6 39 58 61 57 24 90 30 90 18z m-1249 -603 c20 -52 35 -98 33 -101 -2 -3 -98
-43 -214 -89 -127 -50 -209 -87 -207 -94 3 -6 20 -49 38 -95 18 -46 38 -85 45
-88 7 -2 65 16 129 42 65 25 120 43 123 40 6 -6 10 -3 -58 -45 -105 -64 -165
-105 -225 -150 -91 -68 -152 -110 -162 -110 -10 0 -218 528 -210 536 14 15
634 254 651 251 15 -1 29 -26 57 -97z m1482 -107 c4 -46 2 -72 -6 -80 -16 -15
-137 -64 -137 -54 0 17 120 200 131 201 4 0 9 -30 12 -67z m-2269 -436 l118
-302 -93 -87 c-52 -48 -97 -84 -101 -80 -17 19 -268 653 -268 678 0 15 23 28
93 56 50 20 101 37 112 37 17 1 37 -43 139 -302z m-791 -43 c51 -30 130 -80
177 -109 47 -30 119 -74 160 -100 186 -113 355 -224 358 -234 4 -13 -135 -171
-150 -171 -11 0 -194 112 -371 228 -54 35 -101 62 -103 59 -2 -2 48 -135 112
-296 133 -329 129 -289 41 -405 -47 -63 -97 -99 -114 -83 -3 3 -99 245 -214
538 -138 350 -207 535 -200 542 9 9 186 84 204 86 5 1 50 -24 100 -55z m-323
-2138 c0 -14 -13 -64 -29 -113 -16 -48 -31 -96 -33 -106 -1 -10 -7 -19 -12
-20 -11 -3 -85 189 -77 200 6 9 127 61 144 63 4 0 7 -11 7 -24z m-92 -2208
c12 -57 22 -106 22 -109 0 -4 -18 -14 -40 -23 -22 -9 -40 -22 -40 -29 0 -7 74
-202 165 -433 91 -230 163 -424 161 -430 -4 -11 -224 -100 -231 -93 -2 3 -79
196 -171 429 -91 234 -169 428 -173 432 -4 4 -81 -22 -171 -57 -91 -36 -170
-63 -175 -61 -14 5 -89 195 -81 204 11 10 680 271 697 272 12 0 21 -24 37
-102z m809 -1690 c45 -48 50 -63 62 -173 7 -54 13 -100 15 -102 2 -2 25 6 51
17 27 12 56 20 64 18 9 -2 64 -53 124 -115 79 -82 107 -118 107 -137 0 -22 3
-25 28 -20 22 4 37 -4 80 -41 28 -26 52 -52 52 -59 0 -6 -30 -23 -66 -36 -37
-14 -69 -31 -71 -37 -3 -7 2 -84 11 -170 8 -87 12 -161 8 -165 -8 -8 -131 -58
-142 -58 -4 0 -13 69 -20 154 -7 85 -16 160 -21 167 -6 10 -23 7 -78 -15 -39
-15 -73 -31 -76 -36 -3 -4 2 -81 11 -170 8 -90 12 -166 7 -170 -4 -4 -37 -17
-71 -30 -48 -17 -66 -20 -71 -11 -4 6 -13 81 -21 166 -7 85 -15 155 -19 155
-3 0 -36 -12 -74 -27 -41 -16 -71 -23 -76 -17 -5 5 -11 40 -13 78 l-3 68 78
31 79 31 -7 60 c-10 101 -16 136 -25 136 -4 0 -37 -11 -73 -25 -40 -15 -69
-21 -72 -15 -3 6 -9 41 -12 78 l-6 68 77 29 76 30 -1 45 c0 25 -6 100 -12 168
-7 67 -10 126 -7 131 8 12 44 30 61 31 8 0 29 -15 46 -32z"/>
<path d="M1735 1190 l-70 -28 3 -93 c2 -52 6 -97 11 -102 9 -9 142 41 153 57
4 6 6 18 4 26 -3 8 -7 50 -11 93 -4 42 -10 77 -13 76 -4 0 -38 -13 -77 -29z"/>
<path d="M9573 10781 c-49 -30 -111 -116 -129 -178 -25 -88 -17 -193 23 -274
64 -128 167 -199 305 -207 64 -4 88 -1 139 18 163 61 256 257 205 432 -19 68
-75 153 -128 196 l-40 32 -172 0 c-152 0 -175 -2 -203 -19z m288 -162 c41 -29
82 -122 74 -168 -9 -49 -41 -98 -75 -116 -67 -35 -179 -2 -209 60 -66 137 9
266 143 249 21 -3 51 -14 67 -25z"/>
<path d="M10750 10797 c0 -2 11 -30 25 -63 l24 -59 1 63 c0 60 -1 62 -25 62
-14 0 -25 -1 -25 -3z"/>
<path d="M10711 9608 c-88 -37 -134 -80 -168 -159 -14 -32 -29 -59 -33 -59 -4
0 -29 12 -56 27 -76 42 -140 37 -288 -22 -65 -26 -138 -63 -162 -82 -33 -24
-54 -33 -83 -33 -53 0 -194 -52 -257 -95 -30 -21 -63 -35 -81 -35 -72 0 -204
-61 -256 -119 -50 -55 -60 -103 -52 -232 l7 -107 -28 -15 c-37 -19 -77 -62
-99 -107 -24 -46 -14 -211 17 -282 19 -44 19 -54 9 -106 -16 -72 -1 -201 30
-267 24 -51 77 -99 125 -115 29 -10 33 -16 39 -63 8 -61 37 -132 68 -166 33
-35 96 -61 152 -61 58 0 215 57 252 92 13 12 44 24 74 29 62 10 176 52 221 82
18 13 47 47 63 77 29 54 30 58 28 177 -2 121 -2 122 24 143 15 11 33 19 41 18
8 -2 29 -36 46 -76 39 -93 83 -138 153 -158 63 -18 83 -15 211 33 l92 36 0
302 0 302 -107 66 c-60 36 -109 63 -111 59 -1 -4 43 -122 98 -261 56 -140 97
-258 93 -262 -11 -10 -211 -89 -226 -89 -11 1 -414 1012 -424 1065 -4 19 8 26
102 63 58 23 112 42 120 42 8 0 46 -85 100 -222 48 -123 91 -227 95 -231 6 -7
57 154 156 492 31 106 39 120 75 133 l29 10 0 104 c0 57 -3 104 -7 104 -5 0
-41 -15 -82 -32z m-761 -696 c7 -81 16 -150 19 -155 4 -4 35 4 69 18 34 14 68
25 75 25 18 0 33 -126 17 -145 -6 -7 -36 -23 -68 -36 -82 -32 -81 -31 -72
-132 5 -49 11 -91 14 -94 3 -4 38 6 77 22 38 15 73 25 76 21 3 -3 8 -39 11
-79 l4 -73 -48 -19 c-27 -10 -63 -24 -80 -31 l-31 -13 13 -123 c7 -68 16 -144
19 -169 l5 -47 -65 -26 c-36 -14 -71 -26 -79 -26 -14 0 -17 23 -31 190 -9 107
-16 142 -28 137 -7 -3 -43 -17 -81 -32 l-68 -28 6 -66 c4 -36 9 -91 12 -121 2
-30 7 -76 10 -103 l6 -47 -56 -25 c-87 -38 -101 -40 -103 -13 -7 108 -27 289
-33 299 -6 9 -25 5 -75 -15 -38 -15 -71 -23 -76 -19 -4 4 -9 39 -11 77 l-3 70
75 32 c65 27 75 35 74 55 -4 70 -14 172 -17 175 -2 2 -32 -7 -67 -21 -80 -31
-87 -31 -94 3 -9 47 -11 111 -2 119 4 4 38 20 74 34 l67 27 1 48 c0 27 -5 103
-12 169 -7 74 -8 124 -3 131 15 19 129 58 139 48 5 -5 11 -45 15 -89 12 -140
23 -226 29 -232 3 -3 39 7 81 23 86 33 81 16 62 189 -7 61 -12 128 -12 150 0
39 0 40 65 66 55 23 67 25 76 13 6 -8 17 -81 24 -162z"/>
<path d="M9735 8491 c-38 -15 -70 -31 -70 -36 2 -45 18 -195 21 -195 13 0 141
55 149 64 15 15 -3 196 -19 195 -6 0 -42 -13 -81 -28z"/>
<path d="M5685 9250 c-22 -5 -70 -20 -107 -35 l-66 -26 39 -101 c22 -55 42
-104 44 -109 12 -19 134 12 188 49 84 57 92 165 15 212 -35 21 -50 22 -113 10z"/>
<path d="M8238 8637 c-185 -73 -356 -146 -380 -163 -31 -22 -60 -32 -99 -36
-41 -5 -276 -86 -298 -104 -3 -3 58 -77 124 -152 9 -10 26 -6 84 18 80 33 106
37 114 18 2 -7 95 -242 205 -523 110 -280 202 -516 204 -524 2 -10 -21 -25
-70 -45 l-72 -30 29 -30 c40 -43 51 -68 51 -115 0 -23 2 -41 4 -41 22 0 158
68 182 90 24 24 41 31 85 34 36 2 107 24 210 64 286 112 553 225 581 245 39
29 78 111 78 165 0 29 -17 87 -51 172 -54 139 -90 186 -161 209 -33 11 -36 15
-41 64 -6 56 -76 243 -108 289 -18 25 -19 33 -9 64 22 65 13 117 -40 254 -54
136 -77 167 -147 197 -76 31 -116 21 -475 -120z m444 -157 c21 -52 37 -99 34
-105 -2 -5 -96 -46 -210 -89 -113 -44 -206 -85 -206 -92 0 -21 68 -188 78
-192 5 -1 88 28 183 67 132 52 177 67 185 58 17 -18 77 -175 70 -185 -3 -5
-84 -40 -181 -77 -106 -41 -175 -73 -175 -81 0 -29 93 -245 104 -241 6 3 102
41 214 86 111 44 208 81 215 81 17 0 93 -198 81 -209 -21 -19 -666 -263 -674
-255 -16 17 -421 1058 -416 1070 5 14 623 263 645 261 8 -1 31 -44 53 -97z"/>
<path d="M4647 8420 c3 -11 11 -19 17 -17 17 6 13 31 -6 35 -12 2 -15 -2 -11
-18z"/>
<path d="M5239 8073 l-24 -28 28 24 c15 14 27 26 27 28 0 8 -8 1 -31 -24z"/>
<path d="M5440 8020 c-18 -12 -2 -12 25 0 13 6 15 9 5 9 -8 0 -22 -4 -30 -9z"/>
<path d="M5370 8000 c-13 -9 -13 -10 0 -9 8 0 24 4 35 9 l20 9 -20 0 c-11 0
-27 -4 -35 -9z"/>
<path d="M5415 7970 c-25 -11 1 -11 35 0 20 6 21 8 5 8 -11 0 -29 -3 -40 -8z"/>
<path d="M5126 7879 c-16 -19 -25 -21 -76 -15 -53 6 -60 5 -86 -20 l-29 -26
30 18 c22 13 47 17 91 16 50 -2 64 1 79 18 10 11 16 22 14 25 -3 2 -13 -5 -23
-16z"/>
<path d="M4956 7793 c-6 -14 -5 -15 5 -6 7 7 10 15 7 18 -3 3 -9 -2 -12 -12z"/>
<path d="M5330 7785 c-7 -9 -8 -15 -2 -15 5 0 12 7 16 15 3 8 4 15 2 15 -2 0
-9 -7 -16 -15z"/>
<path d="M4661 7763 c0 -21 -6 -33 -15 -33 -23 0 -32 -41 -12 -52 10 -5 21
-21 26 -34 6 -15 17 -24 31 -24 21 0 22 6 8 59 -2 8 4 17 15 19 15 3 18 0 13
-19 -12 -46 30 -79 52 -41 10 16 10 16 11 0 0 -31 34 -20 54 17 21 38 36 45
36 17 0 -11 12 -22 33 -30 52 -19 57 -16 57 33 l0 45 -40 -6 c-39 -6 -40 -6
-41 22 -1 17 -3 22 -6 12 -5 -20 -23 -25 -23 -7 0 6 -6 9 -12 6 -7 -2 -23 0
-35 4 -17 6 -23 5 -23 -6 0 -11 -11 -15 -40 -15 -44 0 -48 5 -23 32 9 10 12
18 6 18 -5 0 -18 -9 -28 -20 -24 -27 -33 -25 -38 8 -4 25 -4 25 -6 -5z m279
-83 c0 -5 -9 -10 -20 -10 -11 0 -20 5 -20 10 0 6 9 10 20 10 11 0 20 -4 20
-10z"/>
<path d="M4895 7780 c-19 -8 -19 -9 2 -9 12 -1 25 4 28 9 7 12 -2 12 -30 0z"/>
<path d="M5700 7777 c0 -14 -31 -47 -43 -47 -14 0 -6 28 9 34 9 4 14 9 11 13
-4 3 -17 -1 -29 -9 -13 -9 -38 -19 -56 -22 -17 -4 -32 -12 -32 -18 0 -6 -7 -5
-16 3 -9 7 -29 12 -44 11 -19 -2 -30 2 -35 15 -6 15 -9 13 -16 -12 -5 -16 -6
-39 -3 -52 4 -16 2 -23 -9 -23 -11 0 -13 8 -7 40 9 47 -7 50 -28 7 -17 -36
-32 -34 -32 3 0 29 -1 29 -47 25 -27 -2 -95 -7 -153 -11 -58 -4 -99 -9 -92
-11 16 -6 15 -23 -2 -23 -18 0 -66 -38 -66 -53 0 -6 7 -2 15 10 20 29 55 37
55 13 0 -57 30 -64 78 -19 32 30 34 30 53 13 23 -20 29 -16 33 22 2 16 4 31 5
34 1 6 36 -66 45 -94 6 -19 7 -19 21 0 8 10 15 25 15 32 0 20 20 13 20 -8 0
-20 15 -25 112 -33 52 -5 72 8 62 39 -4 14 1 12 19 -8 24 -25 30 -27 108 -25
72 2 84 4 87 20 2 11 -6 29 -18 42 -18 20 -21 30 -15 64 4 23 4 41 1 41 -3 0
-6 -6 -6 -13z m-557 -84 c-7 -2 -19 -2 -25 0 -7 3 -2 5 12 5 14 0 19 -2 13 -5z
m541 -9 c4 -9 5 -19 3 -21 -8 -8 -37 10 -37 23 0 19 26 18 34 -2z m-544 -8 c0
-3 -4 -8 -10 -11 -5 -3 -10 -1 -10 4 0 6 5 11 10 11 6 0 10 -2 10 -4z"/>
<path d="M4929 7733 c-13 -16 -12 -17 4 -4 9 7 17 15 17 17 0 8 -8 3 -21 -13z"/>
<path d="M10719 7521 c-71 -52 -142 -120 -174 -165 l-20 -28 -45 23 c-35 19
-60 24 -110 23 -60 -1 -102 -15 -515 -178 -247 -98 -459 -183 -470 -188 -11
-6 -38 -28 -60 -49 -37 -35 -46 -39 -130 -49 -198 -26 -345 -77 -458 -160 -43
-32 -124 -121 -156 -174 -24 -38 -39 -43 -72 -26 -10 6 -45 11 -76 11 -64 1
-83 16 -150 116 -19 29 -39 53 -44 53 -5 0 -45 -31 -88 -68 -43 -37 -105 -82
-137 -100 -64 -36 -60 -37 59 -13 32 7 72 11 90 9 29 -3 27 -5 -28 -21 -86
-26 -169 -61 -252 -109 -68 -39 -73 -44 -73 -76 0 -30 26 -102 36 -102 3 0 26
11 52 24 83 42 160 59 267 60 103 1 155 -7 155 -24 0 -6 -19 -10 -43 -10 -96
0 -244 -57 -359 -140 -67 -48 -66 -46 -46 -207 l11 -95 71 6 c87 8 170 -5 239
-38 l52 -24 -75 -1 c-64 -1 -132 -14 -237 -46 -27 -9 -29 -29 -8 -109 8 -32
13 -62 9 -67 -3 -5 2 -16 10 -25 9 -8 16 -22 16 -30 0 -7 26 -27 58 -43 31
-16 75 -46 97 -66 38 -35 39 -36 12 -30 -98 20 -129 18 -109 -10 7 -11 184
-85 202 -85 13 0 13 45 1 69 -9 16 -2 17 90 17 98 -1 99 -1 101 -26 6 -88 -20
-163 -66 -193 -35 -23 -124 -22 -221 3 -43 11 -79 19 -80 18 -1 -2 -7 -39 -13
-83 -6 -44 -12 -89 -14 -99 -3 -17 8 -22 80 -36 45 -10 85 -20 88 -22 9 -10
-38 -122 -85 -202 -124 -212 -400 -421 -681 -516 -52 -18 -115 -41 -139 -52
-24 -11 -79 -31 -122 -45 l-78 -26 -6 -66 c-12 -138 -27 -156 -97 -123 -24 12
-52 22 -61 22 -25 0 -30 56 -18 186 7 64 14 120 16 125 3 4 20 11 38 14 64 14
191 59 179 63 -7 2 -32 -1 -55 -6 -23 -6 -119 -16 -212 -22 -326 -22 -692 21
-987 116 -465 150 -783 420 -923 783 -19 50 -35 96 -35 102 0 7 16 -9 35 -34
106 -139 290 -229 535 -264 114 -16 128 -16 235 0 234 35 373 114 439 249 134
273 -77 759 -405 936 -95 51 -147 62 -306 62 -119 0 -153 -3 -205 -21 -119
-40 -199 -89 -282 -171 l-79 -78 7 52 c4 29 16 91 27 137 11 47 17 91 15 98
-3 7 -20 13 -38 13 -106 0 -389 80 -530 150 -34 17 -64 27 -68 23 -17 -19 -95
-338 -107 -435 -3 -21 -7 -38 -9 -38 -3 0 -32 12 -66 26 -121 51 -287 68 -410
43 -76 -15 -231 -94 -268 -135 -46 -53 -41 -58 50 -50 70 6 88 4 128 -14 103
-46 182 -171 182 -289 0 -79 -15 -117 -72 -179 -26 -30 -45 -58 -42 -63 3 -6
36 -7 77 -4 61 5 77 3 103 -14 69 -43 104 -117 104 -217 0 -53 -5 -71 -30
-111 -28 -43 -39 -100 -24 -116 11 -10 70 19 158 77 83 56 168 99 217 111 24
6 29 1 59 -52 125 -224 353 -433 598 -549 50 -24 92 -48 92 -52 0 -4 -31 -18
-69 -31 -46 -16 -81 -35 -103 -58 -29 -30 -33 -41 -36 -101 -9 -157 98 -391
198 -432 17 -7 30 -15 30 -17 0 -3 -21 -27 -46 -54 -45 -46 -48 -47 -73 -35
-14 7 -59 24 -100 36 -76 23 -116 24 -291 5 l-55 -6 -92 85 c-51 47 -104 88
-117 92 -32 8 -91 -24 -142 -78 -58 -61 -124 -147 -124 -163 0 -13 29 -27 150
-72 173 -64 434 -102 605 -88 121 11 152 8 184 -14 l26 -19 150 135 c273 245
385 364 450 476 l28 48 64 -70 c103 -113 296 -239 428 -281 22 -7 44 -16 48
-20 8 -7 49 -225 83 -440 16 -107 31 -226 37 -316 6 -73 -4 -77 -65 -25 -39
34 -41 34 -35 11 19 -69 123 -548 171 -790 111 -556 190 -860 265 -1010 24
-48 34 -59 90 -87 74 -37 101 -61 127 -109 10 -18 24 -34 32 -34 18 0 0 32
-49 85 -43 46 -47 55 -24 55 8 0 15 4 15 10 0 17 69 87 99 99 30 13 94 115
126 203 10 27 26 50 36 53 45 15 63 69 39 116 -8 14 -5 46 11 122 30 142 31
143 76 150 61 10 88 46 88 116 -1 67 -22 108 -65 124 -32 12 -32 11 -3 143 27
121 55 133 100 43 52 -103 88 -311 103 -587 15 -273 -5 -599 -41 -658 -11 -18
-19 -50 -19 -73 0 -50 -31 -84 -92 -103 -37 -11 -40 -10 -71 20 -40 39 -93 44
-122 12 -10 -12 -33 -30 -52 -41 -24 -15 -34 -30 -39 -57 -9 -50 -21 -72 -41
-72 -13 0 -14 -12 -7 -98 13 -168 18 -152 -56 -183 -36 -15 -68 -25 -72 -21
-4 4 -13 61 -19 126 -9 83 -15 113 -20 98 -5 -12 -19 -27 -33 -33 -13 -6 -29
-22 -35 -36 -6 -13 -25 -32 -41 -41 -35 -20 -49 -50 -29 -63 21 -14 -3 -25
-68 -33 -30 -3 -68 -13 -84 -21 -23 -12 -32 -13 -48 -3 -11 7 -21 10 -23 8 -2
-3 -10 -18 -20 -35 -9 -16 -28 -36 -42 -43 -14 -7 -31 -22 -36 -33 -8 -13 -22
-19 -48 -20 -35 -1 -36 -1 -11 -10 18 -7 30 -22 38 -50 28 -92 147 -161 242
-140 67 15 191 69 219 95 17 16 42 25 76 29 67 7 220 70 257 105 60 56 70 92
66 235 l-4 130 28 21 c27 20 29 20 41 4 7 -10 18 -43 25 -74 24 -108 131 -185
236 -170 43 6 269 93 309 119 52 34 96 117 96 178 0 16 3 29 7 29 4 0 42 -17
83 -37 103 -51 140 -50 295 11 66 26 149 60 185 76 36 16 155 63 265 106 360
139 503 240 582 412 49 107 45 104 106 77 179 -79 411 -72 639 20 126 50 221
110 332 209 l71 64 125 1 c69 1 150 7 180 14 l55 13 3 108 c3 106 2 107 -18
96 -33 -18 -168 -38 -243 -36 l-69 1 -39 100 c-21 55 -41 107 -44 117 -5 15 7
16 117 15 88 0 143 4 192 17 109 28 106 24 106 148 l0 108 -37 1 c-21 1 -41 1
-44 1 -3 -1 -62 -4 -130 -7 -203 -11 -305 17 -379 103 -81 96 -103 256 -50
366 72 149 277 254 509 259 l96 2 17 -35 c18 -35 18 -33 18 148 l0 183 -27
-19 c-16 -11 -39 -31 -51 -45 -20 -21 -39 -27 -110 -37 -138 -18 -221 -40
-309 -81 -112 -51 -188 -107 -248 -180 -99 -122 -87 -113 -126 -100 -97 32
-286 17 -444 -34 -221 -72 -430 -253 -518 -447 l-25 -57 -89 39 c-48 22 -96
40 -106 40 -29 0 -30 24 -1 86 36 81 67 164 123 330 45 136 49 142 107 200 86
85 104 158 64 271 -24 69 -24 63 -1 63 10 0 41 -15 67 -33 116 -78 192 -117
248 -128 67 -12 91 -8 211 38 115 45 144 59 177 90 20 19 39 26 80 28 35 3 94
21 178 55 69 28 229 92 355 142 204 81 235 96 272 134 32 33 44 55 52 96 13
63 8 86 -48 227 -50 128 -76 162 -146 196 -53 25 -55 27 -55 65 0 45 -70 240
-102 284 -19 26 -20 34 -9 78 18 78 14 100 -39 236 -48 124 -67 152 -131 200
-32 24 -109 31 -168 16 -54 -15 -603 -229 -660 -258 -16 -9 -43 -28 -61 -43
-26 -21 -45 -28 -84 -29 -28 -1 -69 -9 -90 -18 -48 -20 -50 -18 -66 83 -6 42
-21 121 -32 176 -11 55 -22 111 -25 126 -3 18 3 34 24 56 28 30 30 30 103 26
102 -7 284 27 403 74 219 87 324 197 398 416 32 93 23 213 -24 330 -48 119
-111 197 -204 253 -49 29 -53 45 -20 77 25 25 98 52 119 44 8 -3 75 -159 149
-348 87 -225 144 -355 162 -376 43 -49 108 -76 170 -71 82 8 306 100 351 145
72 73 80 175 21 277 -23 41 -245 598 -245 616 0 6 6 10 13 10 6 0 25 -37 41
-83 54 -156 156 -312 249 -383 65 -49 116 -84 122 -84 3 0 5 53 5 118 l0 118
-46 44 c-54 54 -105 140 -140 241 -38 108 -38 253 0 363 34 101 66 154 132
224 l54 56 0 113 c0 62 -3 113 -7 113 -5 0 -38 -22 -74 -49z m-296 -431 c21
-52 36 -99 33 -106 -3 -7 -76 -40 -163 -74 -87 -34 -161 -65 -166 -69 -4 -4
69 -200 162 -437 108 -274 166 -433 160 -439 -15 -16 -223 -94 -230 -87 -4 4
-81 198 -172 431 -92 233 -169 426 -172 429 -2 3 -76 -22 -162 -56 -87 -33
-164 -62 -172 -64 -10 -2 -27 26 -53 87 -20 50 -37 97 -38 106 0 11 123 64
458 196 251 99 462 180 467 179 6 -1 27 -45 48 -96z m-1026 -480 c24 -58 43
-111 43 -118 0 -11 -17 -12 -82 -7 -145 12 -321 -32 -367 -92 -30 -37 -28 -91
4 -126 31 -32 12 -30 265 -31 199 -1 207 -2 260 -27 79 -37 133 -96 164 -180
54 -144 27 -259 -85 -372 -95 -95 -216 -147 -386 -167 -156 -18 -150 -21 -200
101 -23 57 -42 109 -43 114 0 6 49 10 128 11 86 0 146 6 185 17 90 25 165 77
168 116 1 9 2 23 3 31 3 31 -17 71 -45 91 -26 18 -41 20 -132 17 -325 -9 -377
1 -463 86 -97 98 -125 246 -71 369 73 163 308 279 552 273 l60 -1 42 -105z
m-932 -261 c13 -19 -5 -23 -38 -6 l-32 16 32 0 c17 1 35 -4 38 -10z m24 -99
c10 0 24 -20 39 -58 12 -32 22 -61 22 -66 0 -5 -16 -5 -35 -2 -46 9 -195 9
-229 0 -35 -8 -33 4 9 53 43 51 110 86 149 78 16 -3 36 -5 45 -5z m-4489 -251
c242 -30 504 -191 619 -383 67 -111 72 -126 60 -170 -7 -26 -17 -38 -36 -42
-45 -12 -75 8 -130 86 -92 131 -242 270 -366 339 -126 70 -279 111 -417 111
-59 0 -99 4 -95 9 8 14 102 43 165 51 83 11 108 11 200 -1z m1921 -193 c93
-139 139 -272 139 -405 0 -107 -24 -172 -87 -233 -88 -85 -182 -118 -348 -124
l-120 -4 55 19 c115 41 208 111 263 197 25 41 67 145 67 169 0 8 -19 17 -50
24 -146 31 -226 120 -145 161 32 16 132 20 177 7 27 -7 27 -6 22 25 -12 66
-47 165 -85 235 -22 40 -39 75 -39 79 0 17 116 -99 151 -150z m2615 22 c19
-37 23 -133 7 -162 -9 -16 -120 -68 -193 -91 -14 -4 -23 7 -44 60 -36 90 -35
95 19 95 51 0 54 4 23 37 -12 13 -20 24 -17 26 12 10 156 65 171 66 10 1 25
-13 34 -31z m-4221 -323 c85 -22 199 -80 240 -122 38 -40 49 -98 20 -109 -9
-4 -62 14 -118 39 -191 84 -322 112 -492 104 -60 -2 -119 -8 -130 -11 -40 -15
39 45 94 70 114 53 255 64 386 29z m831 7 c6 -4 17 -18 24 -31 10 -20 9 -27
-7 -50 -22 -29 -84 -41 -109 -20 -19 15 -18 59 2 87 15 22 66 30 90 14z m-628
-339 c-5 -29 -94 -67 -430 -186 -54 -19 -98 -30 -98 -25 0 21 128 134 186 165
84 45 153 62 257 62 78 1 88 -1 85 -16z m5576 -288 c21 -53 36 -101 33 -108
-2 -6 -96 -47 -208 -91 -112 -43 -206 -80 -208 -82 -8 -8 74 -204 86 -204 7 0
84 29 173 65 89 36 169 65 179 65 14 0 27 -23 54 -92 19 -51 32 -96 28 -99 -3
-4 -85 -37 -181 -74 -96 -37 -177 -69 -179 -70 -3 -3 87 -243 94 -253 2 -2
100 36 219 83 118 48 221 85 227 83 6 -2 29 -48 51 -102 29 -73 36 -101 27
-107 -26 -16 -669 -262 -674 -257 -11 11 -421 1064 -418 1073 2 6 122 57 266
114 144 56 287 113 317 126 30 13 60 24 66 24 6 1 28 -42 48 -94z m-878 -310
c13 -33 107 -273 209 -533 102 -260 185 -477 185 -481 0 -4 -49 -27 -109 -50
l-108 -43 -164 103 c-90 56 -168 105 -173 110 -7 6 10 249 19 257 1 2 38 -20
81 -47 43 -28 80 -49 81 -47 2 2 -33 95 -78 207 l-82 204 -8 155 c-5 85 -6
162 -3 171 5 18 89 59 113 56 7 -1 24 -29 37 -62z m-2251 -1045 c-13 -20 -22
-9 -33 41 -18 74 -13 80 14 22 14 -29 22 -57 19 -63z m175 -20 c0 -8 16 -69
36 -135 45 -152 95 -348 90 -353 -2 -2 -16 9 -30 25 -36 38 -102 174 -121 248
-15 60 -20 200 -8 244 6 23 7 23 20 6 7 -11 13 -26 13 -35z m82 -732 c20 -16
71 -44 112 -64 42 -19 82 -45 90 -57 28 -44 146 -443 146 -493 0 -8 -18 -25
-41 -40 -22 -14 -54 -48 -71 -75 -17 -27 -33 -47 -36 -45 -2 3 -10 31 -17 63
-44 204 -122 452 -191 614 -30 69 -54 129 -54 133 0 9 15 0 62 -36z m2697
-125 c24 -60 46 -114 49 -122 4 -11 -5 -12 -44 -7 -74 11 -182 9 -243 -3 -176
-36 -307 -171 -325 -336 -12 -104 36 -236 111 -306 96 -90 199 -119 334 -93
81 15 189 73 189 101 0 25 -54 143 -66 143 -7 0 -47 -13 -89 -30 -42 -16 -79
-30 -83 -30 -8 0 -85 190 -79 196 6 7 410 164 414 161 1 -2 46 -113 98 -246
58 -147 94 -250 90 -261 -7 -23 -92 -99 -164 -147 -67 -45 -221 -108 -301
-124 -89 -17 -230 -7 -317 24 -84 29 -184 97 -243 164 -52 61 -115 188 -136
278 -22 96 -15 217 19 314 77 220 281 381 537 424 14 2 66 5 116 6 l91 1 42
-107z m-1152 -384 c82 -39 142 -135 143 -225 0 -61 -19 -111 -60 -157 l-30
-34 59 -6 c113 -10 188 -62 239 -167 37 -76 39 -191 3 -264 -34 -68 -123 -153
-217 -205 -65 -36 -361 -161 -439 -185 -18 -5 -31 22 -138 294 -64 165 -117
307 -117 315 0 19 19 49 80 130 25 33 53 73 63 88 10 15 22 25 26 23 5 -3 19
-33 31 -66 18 -47 27 -60 39 -55 113 41 158 64 192 97 35 34 39 43 39 88 0 41
-5 55 -29 82 -28 32 -32 33 -99 32 l-70 -1 35 66 c47 87 95 164 108 174 15 12
95 -2 142 -24z m-1133 -436 c23 -159 36 -331 36 -495 0 -103 -3 -189 -8 -192
-7 -4 -131 68 -159 94 -22 19 -17 234 6 311 53 175 93 306 97 322 9 28 21 11
28 -40z m426 -393 c0 -5 -4 -10 -10 -10 -5 0 -10 5 -10 10 0 6 5 10 10 10 6 0
10 -4 10 -10z m-1249 -159 c-6 -27 -26 -83 -45 -125 -31 -68 -38 -76 -54 -67
-10 5 -30 32 -46 60 l-27 51 35 17 c28 13 36 23 36 43 0 23 64 113 94 132 16
10 20 -52 7 -111z m1352 -164 c115 -69 205 -127 200 -130 -16 -10 -270 -107
-280 -107 -11 0 -341 204 -360 223 -9 9 8 31 78 95 l90 83 32 -20 c18 -10 126
-75 240 -144z m-578 -178 c48 -121 86 -222 84 -224 -8 -7 -210 -85 -222 -85
-12 0 -97 202 -97 230 0 8 16 28 35 43 54 43 95 141 95 230 0 21 4 36 9 32 5
-3 49 -105 96 -226z m-967 -609 c-3 -30 -8 -35 -63 -56 -82 -31 -85 -31 -85
16 0 31 4 40 18 41 9 0 40 11 67 23 28 13 54 20 58 16 5 -4 7 -22 5 -40z"/>
<path d="M8720 1660 c-33 -6 -165 -53 -202 -71 -14 -8 -10 -23 34 -136 27 -70
51 -129 52 -130 6 -6 134 47 190 79 74 41 101 76 100 128 -1 41 -35 105 -62
119 -27 13 -75 18 -112 11z"/>
<path d="M4871 7534 c0 -11 3 -14 6 -6 3 7 2 16 -1 19 -3 4 -6 -2 -5 -13z"/>
<path d="M5038 7543 c7 -3 16 -2 19 1 4 3 -2 6 -13 5 -11 0 -14 -3 -6 -6z"/>
<path d="M5284 7525 c-10 -8 -14 -15 -7 -15 6 0 15 5 19 11 4 7 24 9 52 6 27
-3 39 -1 31 4 -22 14 -73 11 -95 -6z"/>
<path d="M4926 7450 c-10 -22 -22 -40 -27 -40 -5 0 -9 -5 -9 -11 0 -19 30 12
51 53 11 21 16 38 11 38 -4 0 -16 -18 -26 -40z"/>
<path d="M5155 7480 c-3 -5 -2 -10 4 -10 5 0 13 5 16 10 3 6 2 10 -4 10 -5 0
-13 -4 -16 -10z"/>
<path d="M5288 7463 c7 -3 16 -2 19 1 4 3 -2 6 -13 5 -11 0 -14 -3 -6 -6z"/>
<path d="M3931 7444 c0 -11 3 -14 6 -6 3 7 2 16 -1 19 -3 4 -6 -2 -5 -13z"/>
<path d="M5058 7443 c7 -3 16 -2 19 1 4 3 -2 6 -13 5 -11 0 -14 -3 -6 -6z"/>
<path d="M5511 7429 c0 -9 -11 -28 -22 -43 -12 -15 -19 -29 -16 -32 9 -10 48
56 44 74 -4 14 -5 14 -6 1z"/>
<path d="M5226 7362 c-2 -4 -1 -14 5 -22 7 -12 9 -10 9 8 0 23 -5 28 -14 14z"/>
<path d="M257 7130 c-58 -15 -121 -56 -167 -108 -152 -176 -88 -466 126 -572
60 -29 77 -33 148 -33 100 0 173 29 240 96 76 76 107 159 102 271 -9 193 -155
344 -340 352 -39 2 -88 -1 -109 -6z m163 -205 c74 -38 114 -160 76 -232 -33
-64 -111 -96 -179 -74 -96 32 -145 172 -90 259 35 56 130 80 193 47z"/>
<path d="M4187 6523 c-13 -12 -7 -19 34 -46 69 -45 84 -29 20 22 -42 33 -44
34 -54 24z"/>
<path d="M7464 6348 c-54 -50 -112 -165 -146 -288 -20 -73 -23 -109 -23 -260
0 -172 1 -177 34 -278 55 -169 97 -212 210 -212 36 0 83 5 103 10 61 17 131
71 156 120 23 43 23 51 18 205 -8 241 -62 486 -142 650 -36 73 -64 95 -121 95
-37 0 -50 -6 -89 -42z m207 -160 c36 -40 79 -167 109 -328 36 -189 31 -420 -9
-420 -21 0 -30 54 -25 138 l7 87 -30 11 c-35 13 -43 42 -34 120 5 41 10 50 28
52 19 3 21 8 16 40 -10 66 -65 221 -99 277 -30 50 -31 55 -13 55 11 0 34 -15
50 -32z m-257 -359 c25 -20 35 -49 17 -49 -32 0 -61 21 -61 45 0 30 9 31 44 4z
m286 -439 c0 -5 -7 -10 -16 -10 -8 0 -12 5 -9 10 3 6 10 10 16 10 5 0 9 -4 9
-10z"/>
<path d="M10768 5461 c-15 -12 -41 -51 -59 -86 l-31 -64 10 -103 10 -103 -27
-20 c-59 -45 -98 -94 -110 -138 -18 -61 -1 -208 29 -268 20 -38 21 -46 10 -80
-15 -46 -7 -192 16 -260 18 -55 62 -102 125 -135 44 -22 48 -27 52 -66 2 -24
4 27 4 112 1 85 -2 182 -7 215 -4 33 -3 64 1 70 5 5 9 55 9 112 0 94 -2 103
-19 103 -16 0 -19 11 -26 72 -4 43 -3 74 3 76 43 14 42 13 40 305 l-3 279 -27
-21z"/>
<path d="M7325 5146 c-29 -30 -34 -99 -10 -145 20 -40 40 -44 74 -16 39 33 59
111 39 152 -19 39 -68 44 -103 9z"/>
<path d="M6795 5050 c-59 -23 -56 -72 9 -137 61 -61 116 -57 116 9 0 81 -69
151 -125 128z"/>
<path d="M312 4788 l-73 -31 6 -51 c3 -28 8 -72 11 -98 3 -27 9 -48 13 -48 5
0 39 13 77 29 l69 28 -3 79 c-2 87 -8 124 -20 123 -4 0 -40 -14 -80 -31z"/>
<path d="M27 4677 l-27 -11 0 -107 0 -108 50 21 c56 23 56 21 43 151 -6 72
-10 76 -66 54z"/>
<path d="M3385 4663 c-62 -5 -217 -22 -245 -28 -14 -2 -50 -8 -80 -14 -124
-21 -287 -53 -440 -86 -90 -20 -164 -34 -166 -32 -2 2 26 14 62 26 96 35 72
35 -32 2 -49 -16 -127 -41 -173 -56 -87 -27 -254 -106 -266 -125 -5 -8 24 -10
97 -8 102 3 103 3 157 -31 42 -27 57 -32 70 -24 18 11 234 102 399 167 128 51
193 53 280 6 88 -46 132 -89 247 -234 55 -69 102 -126 106 -126 4 0 56 32 116
71 120 80 254 203 285 263 26 51 20 117 -13 152 -60 64 -213 93 -404 77z"/>
<path d="M4420 4588 c0 -30 112 -261 178 -368 l47 -75 7 65 c5 59 14 96 33
141 4 12 -14 31 -72 75 -43 32 -104 83 -135 113 -32 30 -58 52 -58 49z"/>
<path d="M2555 4224 c-82 -16 -160 -42 -195 -65 -14 -8 -86 -48 -160 -87 -74
-39 -202 -110 -285 -158 -82 -48 -213 -120 -290 -161 -77 -41 -144 -78 -150
-82 -9 -7 -70 -41 -175 -97 l-35 -19 37 -5 37 -5 -64 -53 c-36 -29 -70 -63
-76 -74 -11 -20 -9 -21 20 -15 18 4 84 31 147 62 l116 54 41 -21 c210 -106
369 -314 384 -503 5 -56 3 -65 -31 -120 -20 -33 -36 -73 -36 -89 0 -27 2 -28
35 -23 40 7 92 41 228 149 108 86 118 89 243 68 226 -39 382 -111 507 -231
l69 -66 -20 -39 c-25 -49 -62 -169 -62 -200 0 -32 22 -31 74 5 65 45 106 105
171 252 24 54 50 96 74 117 33 29 164 99 281 150 127 55 390 119 580 142 81 9
90 8 185 -21 55 -17 136 -41 180 -55 43 -13 83 -28 88 -33 10 -10 -12 -61 -27
-62 -6 0 -32 0 -57 1 -133 4 -397 -106 -464 -195 -34 -44 -31 -80 12 -166 41
-83 142 -193 192 -210 17 -6 31 -14 31 -17 0 -4 -52 -58 -114 -121 l-115 -113
-29 21 c-96 68 -410 48 -536 -34 -65 -43 -60 -139 15 -291 34 -69 97 -134 129
-134 25 0 25 -11 0 -40 -23 -27 -115 -213 -125 -253 -7 -27 -14 -31 -48 -27
-69 7 -287 -206 -318 -310 -10 -34 -9 -43 10 -73 35 -56 160 -129 241 -139 22
-3 25 -10 36 -81 7 -43 25 -114 40 -158 l29 -79 -45 -42 c-25 -24 -54 -55 -66
-69 -19 -23 -31 -27 -112 -33 -126 -9 -230 -38 -342 -94 -81 -40 -110 -62
-198 -150 l-104 -103 -42 21 c-65 31 -146 27 -248 -12 l-83 -33 308 -3 c299
-2 308 -2 330 18 39 37 127 91 187 116 86 35 144 45 247 45 143 0 270 -48 375
-140 l46 -41 107 0 c82 0 106 3 102 13 -26 69 -40 117 -36 122 8 8 250 -46
268 -59 8 -6 20 -26 28 -43 13 -32 14 -33 78 -33 36 0 65 2 65 4 0 10 -87 59
-125 70 -86 26 -250 156 -343 272 -153 190 -246 411 -272 646 -33 296 69 613
276 863 l58 70 7 -33 c4 -18 15 -42 24 -52 40 -44 180 -12 228 52 25 33 34
117 17 158 -7 17 -25 41 -41 54 l-28 24 62 49 c34 27 76 59 93 71 19 13 34 34
37 52 6 28 27 43 27 20 0 -21 65 -50 113 -50 106 0 180 85 180 205 0 95 -40
152 -127 177 -22 6 -42 13 -44 14 -11 7 153 274 177 289 17 10 39 -12 87 -87
24 -38 56 -74 73 -83 77 -40 227 1 310 84 82 82 132 227 111 326 -12 57 -60
139 -95 161 -19 13 -20 11 -20 -54 0 -81 -37 -163 -98 -219 -35 -31 -44 -35
-82 -31 -28 4 -60 18 -96 45 -75 55 -84 59 -217 99 -282 86 -644 230 -891 356
-84 43 -163 78 -175 78 -11 0 -35 -9 -53 -20 -40 -24 -96 -136 -183 -363 -76
-201 -167 -383 -237 -478 -31 -41 -53 -67 -50 -59 3 8 33 78 67 155 74 167
123 333 152 509 18 112 19 141 9 199 -28 170 -97 203 -258 125 -119 -57 -382
-247 -568 -410 -16 -14 -86 -72 -155 -127 -125 -100 -203 -151 -215 -139 -13
12 15 45 156 183 429 421 547 548 640 690 86 129 101 236 43 296 -48 50 -125
60 -259 33z"/>
<path d="M3755 4073 c-54 -12 -245 -74 -249 -82 -9 -13 141 -147 249 -222 60
-42 165 -103 169 -98 15 21 50 126 62 187 11 60 12 88 4 129 -16 76 -42 93
-139 92 -42 -1 -85 -3 -96 -6z"/>
<path d="M5700 2933 c-23 -27 -74 -115 -117 -203 -41 -85 -82 -163 -91 -172
-18 -21 -67 -23 -113 -4 -19 7 -43 17 -54 21 -105 42 -127 47 -235 52 -100 4
-123 2 -179 -17 -164 -55 -286 -194 -380 -432 -60 -151 -91 -315 -108 -563 -7
-106 -7 -108 -13 -49 -8 69 -34 112 -86 140 -33 18 -35 18 -68 0 -37 -20 -71
-73 -81 -127 -8 -44 15 -105 51 -135 l26 -22 -44 -30 c-56 -38 -159 -148 -192
-205 -14 -23 -32 -63 -41 -87 -21 -59 -65 -285 -65 -333 0 -60 29 -177 62
-243 127 -262 516 -477 931 -514 138 -12 304 -13 311 -2 3 5 43 12 88 16 46 3
119 13 163 21 44 8 123 21 175 30 52 8 136 26 185 40 50 13 96 25 102 25 13 0
43 -61 43 -86 0 -8 -6 -14 -12 -15 -7 0 -31 -9 -53 -19 l-40 -19 153 0 152 -1
0 55 c0 43 -20 122 -36 143 -1 2 -34 -7 -73 -19 -40 -11 -75 -19 -78 -15 -7 6
-8 6 108 40 48 14 95 26 105 27 11 0 14 3 7 5 -6 3 -49 -2 -95 -11 -111 -22
-447 -31 -598 -15 -63 6 -137 13 -165 15 -64 6 -212 33 -246 46 -14 6 -41 12
-60 14 -47 6 -194 52 -254 79 -27 13 -70 32 -95 43 -65 30 -166 107 -195 150
-14 21 -36 53 -50 71 -47 64 -59 229 -21 287 22 33 36 31 36 -4 0 -96 100
-207 243 -270 80 -35 197 -73 204 -67 2 1 -2 17 -7 36 -7 25 -6 41 5 63 8 17
14 31 13 32 -2 0 -33 16 -70 34 -109 52 -142 123 -92 196 l27 40 -27 75 c-14
41 -28 91 -30 110 -3 20 -9 47 -15 60 -50 119 -68 620 -23 620 28 0 80 37 97
69 19 38 20 123 0 161 -8 15 -26 37 -40 48 -31 24 -30 22 -1 113 54 171 113
265 185 296 88 38 224 35 318 -7 61 -27 129 -94 159 -158 15 -32 33 -96 41
-147 43 -282 -39 -949 -152 -1227 -5 -12 -2 -18 8 -18 8 0 46 -16 84 -35 65
-33 152 -109 165 -145 3 -8 9 -12 13 -8 4 4 -2 23 -14 43 -11 20 -21 39 -21
43 0 4 62 13 138 20 75 7 148 15 162 18 22 4 29 -2 54 -48 85 -153 145 -210
264 -250 76 -25 87 -24 68 4 -18 25 -21 74 -6 83 18 11 10 24 -27 44 -41 21
-93 66 -93 80 0 5 14 14 30 21 45 19 70 56 70 103 0 35 -6 46 -44 83 -49 46
-102 62 -150 45 -37 -15 -43 -14 -49 7 -3 9 -17 50 -31 90 -14 41 -26 75 -26
77 0 1 19 5 43 8 102 14 139 149 72 263 -26 44 -71 70 -104 59 -11 -3 -33 -21
-50 -40 l-30 -35 -10 38 c-28 107 -64 300 -93 492 -30 200 -32 234 -33 480 0
274 6 329 51 435 8 19 12 35 10 35 -2 0 -23 -21 -46 -47z"/>
<path d="M10658 2885 c-2 -2 -25 -5 -53 -8 -59 -6 -151 -40 -182 -66 -47 -40
-48 -115 -2 -157 22 -20 49 -22 277 -15 l102 2 0 119 c0 107 -2 119 -19 125
-16 5 -117 5 -123 0z"/>
<path d="M0 2179 c1 -67 2 -72 15 -55 19 25 19 85 0 110 -14 18 -15 13 -15
-55z"/>
<path d="M5975 1875 c-31 -30 -32 -55 -2 -83 31 -29 82 -29 98 -1 12 23 6 74
-12 96 -18 21 -58 15 -84 -12z"/>
<path d="M530 1450 c-30 -11 -161 -61 -290 -112 l-235 -93 -3 -103 c-1 -56 1
-102 5 -102 5 0 145 54 313 120 167 65 307 117 311 114 8 -5 79 -183 79 -199
0 -5 -91 -45 -203 -89 -111 -43 -206 -82 -210 -86 -11 -10 62 -200 77 -200 6
0 87 30 179 66 92 36 174 64 180 61 13 -5 77 -156 77 -181 0 -8 -72 -42 -172
-81 -95 -37 -177 -71 -181 -75 -6 -5 75 -234 88 -248 1 -2 101 36 220 83 120
47 222 82 226 78 9 -10 79 -184 79 -197 0 -6 -109 -54 -243 -106 l-242 -95
250 -3 c138 -2 265 0 283 3 53 10 119 77 138 142 19 65 16 83 -43 235 -51 130
-80 169 -156 203 -47 20 -49 23 -52 66 -3 51 -76 245 -107 285 -19 24 -20 31
-10 70 7 25 12 62 12 84 0 53 -84 263 -124 308 -61 70 -145 88 -246 52z"/>
<path d="M4800 1440 c-21 -39 14 -100 57 -100 52 0 82 69 45 103 -27 25 -88
22 -102 -3z"/>
<path d="M10743 1285 c-34 -29 -49 -35 -86 -35 -48 0 -248 -71 -324 -116 -71
-41 -93 -95 -143 -347 -12 -59 -22 -64 -72 -33 -24 14 -61 39 -83 56 -66 50
-165 92 -225 97 -48 4 -72 -1 -180 -42 -121 -46 -171 -72 -198 -105 -30 -34
-52 -97 -52 -147 0 -56 -3 -59 -47 -42 -70 28 -154 41 -253 40 -304 -4 -541
-135 -716 -398 -19 -29 -39 -53 -44 -53 -5 0 -17 11 -26 25 -9 13 -40 36 -70
51 -46 22 -63 26 -107 21 -51 -6 -273 -89 -322 -121 -27 -18 -69 -77 -80 -113
-6 -23 -6 -23 112 -23 113 0 124 2 206 35 48 19 91 35 97 35 5 0 16 -16 24
-35 l15 -35 160 0 c111 0 161 3 161 11 0 21 52 114 93 167 52 69 147 142 237
183 299 137 657 7 791 -287 l34 -73 83 -1 c45 0 82 2 82 5 0 3 -54 143 -120
312 -66 168 -119 311 -117 316 3 11 194 87 219 87 9 0 117 -67 240 -148 238
-159 268 -177 268 -165 0 4 21 91 46 193 25 102 55 226 67 277 12 51 27 97 32
102 12 12 192 81 210 81 8 0 39 -64 75 -157 34 -87 63 -160 66 -162 2 -2 4
127 4 287 0 161 -4 292 -8 292 -5 0 -27 -16 -49 -35z"/>
<path d="M3831 1244 c-60 -50 -26 -134 54 -134 35 0 80 30 90 59 9 29 -11 69
-44 86 -42 21 -65 19 -100 -11z"/>
<path d="M0 626 l0 -277 68 -174 67 -175 112 0 113 0 -24 63 c-63 165 -328
832 -332 836 -2 2 -4 -120 -4 -273z"/>
<path d="M6780 674 c0 -22 3 -23 20 -14 11 6 20 15 20 19 0 5 -9 11 -20 14
-16 4 -20 0 -20 -19z"/>
<path d="M6440 641 c0 -22 -3 -47 -6 -56 -6 -15 1 -16 77 -10 46 4 87 9 92 12
4 2 -11 17 -35 32 -24 15 -49 35 -57 44 -7 9 -26 17 -42 17 -27 0 -29 -3 -29
-39z"/>
<path d="M5118 598 c-3 -35 -4 -65 -2 -67 2 -2 35 -6 74 -9 l72 -5 -36 39
c-20 21 -40 53 -44 69 -6 22 -15 31 -34 33 -25 3 -26 1 -30 -60z"/>
<path d="M5836 545 c-7 -54 -25 -92 -67 -140 l-31 -34 66 4 c36 3 96 7 132 10
86 6 184 25 184 36 0 5 -12 12 -27 15 -55 13 -154 67 -202 110 l-48 43 -7 -44z"/>
<path d="M10558 508 c-38 -185 -114 -488 -122 -488 -5 0 -34 17 -65 37 -89 58
-218 144 -324 216 -55 37 -97 61 -94 54 3 -6 33 -83 68 -169 l63 -158 358 0
c197 0 358 3 358 8 0 10 -216 561 -222 568 -3 2 -12 -28 -20 -68z"/>
<path d="M5467 549 c-5 -20 8 -25 30 -11 9 6 7 11 -6 19 -16 10 -20 9 -24 -8z"/>
<path d="M8971 163 c-66 -17 -135 -62 -180 -117 l-33 -41 151 -3 c83 -1 219
-1 302 0 l151 3 -41 47 c-89 101 -223 143 -350 111z"/>
<path d="M4688 3 c6 -2 18 -2 25 0 6 3 1 5 -13 5 -14 0 -19 -2 -12 -5z"/>
</g>
</svg>
